<svg width="162" height="167" viewBox="0 0 162 167" fill="none" xmlns="http://www.w3.org/2000/svg">
<path d="M141.009 22.4C127.235 7.74402 107.909 0 85.116 0C68.039 0 52.929 4.58901 40.581 13.364C32.2751 17.5279 24.8946 23.3245 18.881 30.407C6.705 44.66 0 63.816 0 84.345C0 133.336 30.813 166.252 76.674 166.252C94.182 166.252 109.527 161.636 121.92 152.809C130.339 148.605 137.79 142.692 143.796 135.447C155.518 121.376 161.974 102.361 161.974 81.904C161.976 57.57 154.726 36.994 141.009 22.4ZM85.677 148.817C45.863 148.817 21.005 120.591 21.005 78.91C21.005 57.51 29.541 36.425 46.638 23.81C55.8473 19.465 65.9282 17.2834 76.11 17.432C115.362 17.432 140.97 43.785 140.97 87.339C140.97 108.352 133.037 129.654 115.811 142.41C107.428 146.459 97.427 148.817 85.677 148.817Z" fill="black"/>
<path d="M85.677 42.462C77.821 42.462 71.367 44.985 66.477 49.544C53.64 54.049 46.577 67.511 46.577 86.21C46.577 107.147 57.977 123.594 75.921 123.594C83.967 123.594 90.286 121.109 94.969 116.622C108.069 112.193 114.269 98.499 114.269 79.47C114.276 54.426 102.312 42.462 85.677 42.462ZM84.929 106.162C73.011 106.162 67.583 93.004 67.583 80.778C67.583 72.033 69.483 64.734 72.939 60.225V60.22C74.17 59.9995 75.4184 59.8903 76.669 59.894C87.683 59.894 93.269 68.308 93.269 84.901C93.269 95.707 91.204 102.137 88.43 105.964C87.2694 106.116 86.0993 106.182 84.929 106.162Z" fill="black"/>
<path d="M145.381 84.907C145.381 117.989 125.754 151.82 81.0806 151.82C41.2666 151.82 16.4086 123.594 16.4086 81.913C16.4086 48.083 37.7176 15 80.5196 15C119.773 15 145.381 41.354 145.381 84.907ZM81.0806 45.465C61.8286 45.465 50.9866 60.605 50.9866 83.781C50.9866 104.719 62.3866 121.165 80.3326 121.165C100.333 121.165 109.679 105.839 109.679 82.473C109.68 57.429 97.7166 45.465 81.0816 45.465H81.0806Z" fill="#FCD015"/>
<path d="M80.6726 151.82C71.5062 151.925 62.409 150.223 53.9006 146.811C46.1772 143.65 39.2429 138.831 33.5886 132.693C27.8355 126.359 23.433 118.919 20.6496 110.828C17.5369 101.736 15.9656 92.1879 16.0006 82.578H50.5886C50.5826 82.957 50.5786 83.362 50.5786 83.778C50.547 88.7437 51.2417 93.6873 52.6406 98.452C53.8793 102.727 55.8712 106.746 58.5226 110.321C60.973 113.626 64.1323 116.34 67.7686 118.264C71.525 120.202 75.6967 121.198 79.9236 121.164C84.4119 121.25 88.8605 120.308 92.9296 118.412C96.5824 116.618 99.7268 113.936 102.075 110.612C104.622 106.928 106.456 102.8 107.481 98.44C108.723 93.2456 109.324 87.9186 109.271 82.578H144.948C144.965 83.365 144.973 84.149 144.973 84.907C144.974 89.0489 144.663 93.185 144.042 97.28C143.423 101.363 142.476 105.388 141.208 109.318C138.736 117.146 134.787 124.428 129.575 130.769C124.149 137.305 117.306 142.519 109.566 146.017C100.461 149.996 90.6078 151.975 80.6726 151.82Z" fill="#FBB500"/>
<path d="M85.268 151.895C65.013 151.895 47.902 144.875 35.785 131.595C23.885 118.551 17.596 100.361 17.596 78.989C17.596 45.317 38.596 9.07599 84.707 9.07599C104.953 9.07599 122.012 15.842 134.042 28.642C146.161 41.542 152.566 59.982 152.566 81.984C152.566 100.34 146.851 117.309 136.474 129.766C124.413 144.242 106.706 151.895 85.268 151.895ZM84.707 15.075C42.719 15.075 23.596 48.206 23.596 78.988C23.596 119.632 47.803 145.895 85.268 145.895C127.612 145.895 146.568 113.795 146.568 81.983C146.566 40.713 122.863 15.075 84.707 15.075ZM84.52 121.24C65.475 121.24 52.174 104.633 52.174 80.856C52.174 55.371 64.854 39.54 85.268 39.54C105.054 39.54 116.868 54.496 116.868 79.548C116.866 106.044 105.076 121.24 84.52 121.24ZM85.268 45.54C68.302 45.54 58.174 58.74 58.174 80.856C58.174 101.101 69.008 115.24 84.52 115.24C96.539 115.24 110.866 109.048 110.866 79.548C110.866 57.935 101.536 45.54 85.268 45.54Z" fill="#FCD015"/>
</svg>
